<svg xmlns="http://www.w3.org/2000/svg" version="1.1" xmlns:xlink="http://www.w3.org/1999/xlink" xmlns:svgjs="http://svgjs.dev/svgjs" width="1000" height="1000"><style>
    #light-icon {
      display: inline;
    }
    #dark-icon {
      display: none;
    }

    @media (prefers-color-scheme: dark) {
      #light-icon {
        display: none;
      }
      #dark-icon {
        display: inline;
      }
    }
  </style><g id="light-icon"><svg xmlns="http://www.w3.org/2000/svg" version="1.1" xmlns:xlink="http://www.w3.org/1999/xlink" xmlns:svgjs="http://svgjs.dev/svgjs" width="1000" height="1000"><g clip-path="url(#SvgjsClipPath1272)"><rect width="1000" height="1000" fill="#000000"></rect><g transform="matrix(43.75,0,0,43.75,171.875,150)"><svg xmlns="http://www.w3.org/2000/svg" version="1.1" xmlns:xlink="http://www.w3.org/1999/xlink" xmlns:svgjs="http://svgjs.dev/svgjs" width="15" height="16"><svg width="15" height="16" viewBox="0 0 15 16" fill="none" xmlns="http://www.w3.org/2000/svg">
<path d="M8.42 15.2C7.32667 15.2 6.32 15.0267 5.4 14.68C4.49333 14.32 3.7 13.82 3.02 13.18C2.34 12.5267 1.81333 11.76 1.44 10.88C1.06667 10 0.88 9.04 0.88 8C0.88 6.96 1.06667 6 1.44 5.12C1.81333 4.24 2.34 3.48 3.02 2.84C3.71333 2.18667 4.52 1.68667 5.44 1.34C6.36 0.979999 7.36667 0.799999 8.46 0.799999C9.64667 0.799999 10.7133 0.993332 11.66 1.38C12.62 1.76667 13.4267 2.33333 14.08 3.08L12.44 4.68C11.8933 4.13333 11.3 3.73333 10.66 3.48C10.0333 3.21333 9.34 3.08 8.58 3.08C7.84667 3.08 7.16667 3.2 6.54 3.44C5.91333 3.68 5.37333 4.02 4.92 4.46C4.46667 4.9 4.11333 5.42 3.86 6.02C3.62 6.62 3.5 7.28 3.5 8C3.5 8.70667 3.62 9.36 3.86 9.96C4.11333 10.56 4.46667 11.0867 4.92 11.54C5.37333 11.98 5.90667 12.32 6.52 12.56C7.13333 12.8 7.81333 12.92 8.56 12.92C9.25333 12.92 9.92 12.8133 10.56 12.6C11.2133 12.3733 11.8333 12 12.42 11.48L13.9 13.42C13.1667 14.0067 12.3133 14.4533 11.34 14.76C10.38 15.0533 9.40667 15.2 8.42 15.2ZM11.44 13.08V7.84H13.9V13.42L11.44 13.08Z" fill="#F2F3F7"></path>
</svg></svg></g></g><defs><clipPath id="SvgjsClipPath1272"><rect width="1000" height="1000" x="0" y="0" rx="500" ry="500"></rect></clipPath></defs></svg></g><g id="dark-icon"><svg xmlns="http://www.w3.org/2000/svg" version="1.1" xmlns:xlink="http://www.w3.org/1999/xlink" xmlns:svgjs="http://svgjs.dev/svgjs" width="1000" height="1000"><g clip-path="url(#SvgjsClipPath1273)"><rect width="1000" height="1000" fill="#000000"></rect><g transform="matrix(43.75,0,0,43.75,171.875,150)"><svg xmlns="http://www.w3.org/2000/svg" version="1.1" xmlns:xlink="http://www.w3.org/1999/xlink" xmlns:svgjs="http://svgjs.dev/svgjs" width="15" height="16"><svg width="15" height="16" viewBox="0 0 15 16" fill="none" xmlns="http://www.w3.org/2000/svg">
<path d="M8.42 15.2C7.32667 15.2 6.32 15.0267 5.4 14.68C4.49333 14.32 3.7 13.82 3.02 13.18C2.34 12.5267 1.81333 11.76 1.44 10.88C1.06667 10 0.88 9.04 0.88 8C0.88 6.96 1.06667 6 1.44 5.12C1.81333 4.24 2.34 3.48 3.02 2.84C3.71333 2.18667 4.52 1.68667 5.44 1.34C6.36 0.979999 7.36667 0.799999 8.46 0.799999C9.64667 0.799999 10.7133 0.993332 11.66 1.38C12.62 1.76667 13.4267 2.33333 14.08 3.08L12.44 4.68C11.8933 4.13333 11.3 3.73333 10.66 3.48C10.0333 3.21333 9.34 3.08 8.58 3.08C7.84667 3.08 7.16667 3.2 6.54 3.44C5.91333 3.68 5.37333 4.02 4.92 4.46C4.46667 4.9 4.11333 5.42 3.86 6.02C3.62 6.62 3.5 7.28 3.5 8C3.5 8.70667 3.62 9.36 3.86 9.96C4.11333 10.56 4.46667 11.0867 4.92 11.54C5.37333 11.98 5.90667 12.32 6.52 12.56C7.13333 12.8 7.81333 12.92 8.56 12.92C9.25333 12.92 9.92 12.8133 10.56 12.6C11.2133 12.3733 11.8333 12 12.42 11.48L13.9 13.42C13.1667 14.0067 12.3133 14.4533 11.34 14.76C10.38 15.0533 9.40667 15.2 8.42 15.2ZM11.44 13.08V7.84H13.9V13.42L11.44 13.08Z" fill="#F2F3F7"></path>
</svg></svg></g></g><defs><clipPath id="SvgjsClipPath1273"><rect width="1000" height="1000" x="0" y="0" rx="500" ry="500"></rect></clipPath></defs></svg></g></svg>